<svg width="140" height="113" viewBox="0 0 140 113" fill="none" xmlns="http://www.w3.org/2000/svg">
<path d="M52.4591 38.2358C54.3489 38.651 56.1143 39.4416 57.802 40.3143C60.418 41.669 62.7942 43.3633 64.715 45.6973C66.7425 48.1622 68.055 50.8981 68.6279 54.0137C69.132 56.763 69.0343 59.5055 68.6412 62.268C68.0927 66.1165 66.294 69.1899 63.0096 71.2196C60.2315 72.9384 57.1425 73.9066 53.8537 74.1976C45.6171 74.9282 37.3651 74.4107 29.1219 74.5906C28.2203 74.6106 28.0071 74.2775 28.0093 73.4381C28.0293 61.5263 28.0338 49.6146 28.0049 37.7028C28.0027 36.739 28.358 36.5414 29.2329 36.5481C33.7098 36.5836 38.1845 36.5636 42.6614 36.5636C43.9516 36.5636 45.2463 36.5991 46.5121 36.2838C46.7053 36.2349 46.8807 36.2305 46.994 36.417C47.0251 36.4659 47.0162 36.5836 46.9784 36.6213C46.8674 36.7324 46.7364 36.7213 46.5787 36.6769C45.0575 36.2283 43.5253 35.8108 42.0108 35.3444C37.6604 34.0031 33.852 31.8535 31.1316 28.065C30.6386 27.3788 30.1545 26.7082 30.0057 25.8555C30.0191 25.6689 29.968 25.5068 29.8125 25.3891L29.7925 25.338C29.7992 25.1537 29.7215 25.016 29.5638 24.9205L29.5327 24.8539C29.4883 24.7318 29.4461 24.6096 29.4017 24.4897C29.3817 24.4053 29.364 24.3187 29.344 24.2344C29.3151 24.0189 29.304 23.7969 29.2551 23.5859C28.4779 20.3215 27.9694 17.0593 28.4535 13.6661C28.8599 10.8081 29.5594 8.13216 31.4692 5.88261C31.82 5.46956 32.3419 5.18309 32.4751 4.59905L32.4618 4.53243L32.5218 4.4969C32.7616 4.40807 33.0325 4.36366 33.2346 4.22154C37.4628 1.25026 42.3638 0.50411 47.3093 0.346441C53.9603 0.133256 60.6223 0.313131 67.2799 0.268717C68.337 0.262055 68.6723 0.559627 68.6701 1.63888C68.6346 13.1798 68.639 24.7185 68.6656 36.2594C68.6679 37.2542 68.4036 37.614 67.3577 37.6029C62.7719 37.5518 58.1862 37.5807 53.5983 37.5807C53.1164 37.5807 52.6279 37.5629 52.1882 37.7939C51.9239 37.9338 51.935 37.9537 52.4569 38.2358H52.4591Z" fill="white"/>
<path d="M90.2401 72.7468C83.8978 70.9348 79.976 66.5778 77.5888 60.6419C76.7916 58.6588 76.3608 56.5736 75.9944 54.4617C75.2082 49.9249 75.5236 45.3569 75.4459 40.8023C75.3193 33.4429 75.3282 26.0791 75.2682 18.7198C75.2216 12.8749 75.1749 7.03231 75.0772 1.18969C75.0617 0.241456 75.3703 0.0149461 76.2719 0.0171668C85.1502 0.0460357 94.0308 0.0460357 102.909 0.0149461C103.871 0.0105047 104.199 0.281428 104.179 1.26741C104.122 4.11433 104.159 6.96347 104.162 9.81261C104.162 11.487 104.162 11.4826 105.785 11.4826C111.594 11.4826 117.401 11.5026 123.211 11.4604C124.225 11.4537 124.563 11.7379 124.539 12.7772C124.465 15.8795 124.75 19.0107 124.323 22.0775C123.815 25.7371 122.364 29.0593 119.911 31.9218C117.637 34.5755 114.841 36.4586 111.616 37.6422C109.871 38.2818 107.983 38.586 106.091 38.6593C105.463 38.6837 104.837 38.7259 104.21 38.7592C103.733 39.1701 103.942 39.7275 103.939 40.216C103.926 50.9308 103.931 61.6479 103.928 72.3627C103.928 72.6958 103.928 73.0289 103.915 73.3598C103.899 73.7573 103.686 73.9815 103.287 73.9749C100.999 73.9416 98.7009 74.1747 96.4269 73.8527C94.3528 73.5574 92.3009 73.1199 90.2378 72.7446L90.2401 72.7468Z" fill="white"/>
<path d="M116.912 101.2C116.912 99.35 116.946 97.498 116.897 95.6504C116.875 94.8109 117.19 94.5023 117.994 94.5755C118.325 94.6066 118.66 94.5955 118.991 94.5667C119.624 94.5134 120.032 94.6577 120.159 95.3972C120.237 95.8524 120.448 96.261 121.087 95.6837C123.359 93.634 126.606 93.6628 128.82 95.6948C129.288 96.1256 129.566 96.3499 130.119 95.6948C131.598 93.9426 135.901 93.5585 137.767 95.3661C138.577 96.1522 138.973 97.2359 138.999 98.3507C139.066 101.235 139.044 104.122 139.053 107.009C139.053 107.191 139.07 107.48 138.973 107.54C137.949 108.153 136.828 107.786 135.753 107.771C135.078 107.762 135.206 107.089 135.204 106.634C135.191 104.413 135.2 102.192 135.193 99.9718C135.189 98.5483 134.645 97.7 133.645 97.5246C131.844 97.2093 130.647 97.7933 130.083 99.1701C129.775 99.9229 129.81 100.687 129.806 101.457C129.795 103.234 129.783 105.011 129.81 106.787C129.821 107.529 129.584 107.857 128.786 107.833C125.635 107.742 126.177 108.319 126.13 105.233C126.106 103.532 126.13 101.828 126.126 100.125C126.126 98.4973 125.211 97.3536 123.879 97.307C122.138 97.247 120.819 98.3729 120.781 100.056C120.732 102.239 120.732 104.424 120.779 106.605C120.799 107.518 120.488 107.862 119.564 107.84C116.47 107.764 116.93 108.219 116.915 105.199C116.908 103.867 116.915 102.534 116.915 101.202L116.912 101.2Z" fill="white"/>
<path d="M35.4219 106.374C35.4219 108.275 35.3819 109.825 35.4375 111.37C35.4663 112.212 35.1488 112.438 34.3449 112.443C31.5934 112.463 31.5934 112.489 31.5934 109.742C31.5934 105.157 31.6334 100.571 31.5735 95.9854C31.5601 94.8817 31.8288 94.4109 32.9814 94.553C33.7697 94.6507 34.6935 94.291 34.9667 95.5168C35.0533 95.9032 35.3997 95.8521 35.7372 95.559C38.291 93.3339 43.8183 93.5959 45.2751 97.7508C45.8791 99.4785 45.9902 101.286 45.6171 103.118C45.3417 104.473 44.9153 105.676 43.8694 106.687C41.9863 108.508 39.8166 108.204 37.5871 107.782C36.8098 107.635 36.228 107.142 35.4241 106.372L35.4219 106.374ZM41.933 100.88C41.913 100.667 41.8974 100.185 41.8175 99.7117C41.571 98.2416 40.6294 97.3799 39.2193 97.3022C37.2695 97.1934 36.0459 97.884 35.6129 99.3652C35.2598 100.567 35.2753 101.781 35.6196 102.981C35.9726 104.209 36.9986 104.941 38.4598 105.066C39.8677 105.186 41.0736 104.575 41.5954 103.434C41.9263 102.712 41.9152 101.923 41.9307 100.88H41.933Z" fill="white"/>
<path d="M113.743 101.257C113.743 102.219 113.754 103.18 113.739 104.139C113.728 104.848 113.985 105.301 114.756 105.263C115.38 105.232 115.669 105.496 115.582 106.109C115.489 106.773 115.971 107.81 114.863 107.912C113.281 108.059 111.507 108.647 110.39 106.791C110.168 106.42 109.899 106.611 109.644 106.775C107.177 108.381 104.563 108.443 101.843 107.55C101.045 107.288 100.468 106.749 100.237 106.018C99.4865 103.653 100.157 101.097 103.051 100.384C104.883 99.9334 106.699 99.8491 108.545 99.7736C109.04 99.7536 109.731 99.9179 109.85 99.2761C109.95 98.7454 109.85 98.1303 109.357 97.6706C107.961 96.3759 105.289 96.6935 104.265 98.2924C104.074 98.5922 103.901 98.832 103.393 98.7032C102.802 98.5522 102.145 98.6033 101.523 98.6477C100.617 98.7121 100.257 98.3279 100.455 97.4552C100.697 96.3759 101.374 95.5631 102.313 95.1634C105.36 93.8688 108.471 93.7533 111.563 95.0613C113.008 95.672 113.577 96.9133 113.699 98.3723C113.779 99.3272 113.714 100.293 113.714 101.253C113.723 101.253 113.732 101.253 113.741 101.253L113.743 101.257ZM106.04 105.33C106.428 105.303 106.761 105.305 107.088 105.254C108.529 105.023 109.728 104.028 109.895 102.949C109.97 102.456 109.917 101.994 109.295 102.021C107.792 102.085 106.268 102.052 104.841 102.654C104.205 102.92 103.815 103.369 103.855 104.091C103.897 104.868 104.463 105.132 105.109 105.263C105.431 105.33 105.769 105.314 106.044 105.332L106.04 105.33Z" fill="white"/>
<path d="M56.6589 102.056C55.1799 102.056 53.7032 102.074 52.2242 102.05C51.4314 102.037 51.2604 102.372 51.4847 103.082C51.8756 104.324 52.6262 105.154 53.9652 105.303C55.402 105.463 56.9254 105.425 57.7226 104.08C58.3067 103.094 58.9862 103.022 59.89 103.071C60.1854 103.087 60.4829 103.091 60.7761 103.069C61.7243 102.991 61.9997 103.209 61.8331 104.313C61.5733 106.045 59.4015 107.704 57.223 107.959C55.3509 108.179 53.4833 108.19 51.6313 107.741C49.5638 107.242 47.7806 105.294 47.5941 103.218C47.432 101.419 47.221 99.5693 47.8983 97.8638C48.9598 95.1879 51.2982 94.3707 53.9364 94.233C55.3931 94.1575 56.8432 94.1975 58.2645 94.6971C59.85 95.2545 60.9226 96.2783 61.4911 97.8305C61.8176 98.7232 61.9797 99.6626 62.0507 100.613C62.1462 101.89 62.0108 102.043 60.7627 102.048C59.3948 102.054 58.0291 102.048 56.6611 102.048V102.054L56.6589 102.056ZM54.7247 99.6781V99.6693C55.5708 99.6693 56.4146 99.6648 57.2607 99.6693C57.9847 99.6737 58.1534 99.3606 57.9092 98.6922C57.4917 97.5552 56.3391 96.8845 54.7758 96.9223C53.2058 96.96 51.9044 97.7461 51.5824 98.8409C51.4203 99.3917 51.558 99.6915 52.1887 99.6804C53.0348 99.6648 53.8786 99.6759 54.7247 99.6759V99.6781Z" fill="white"/>
<path d="M93.08 102.049C91.6387 102.049 90.1975 102.073 88.7563 102.042C87.888 102.022 87.6304 102.333 87.8969 103.177C88.1589 104.01 88.5431 104.609 89.4336 104.953C91.7276 105.842 93.0511 105.497 94.4523 103.457C94.6478 103.172 94.9031 103.11 95.2096 103.106C95.7625 103.099 96.3177 103.079 96.8707 103.079C98.5095 103.079 98.756 103.619 97.9433 105.16C96.9795 106.988 95.2984 107.636 93.453 107.962C91.843 108.247 90.2108 108.116 88.592 107.907C86.4601 107.634 83.9441 105.34 83.9441 102.975C83.9441 101.081 83.6376 99.1685 84.557 97.3831C85.3897 95.7642 86.7577 94.8515 88.4987 94.4829C90.504 94.0587 92.4959 94.1587 94.4856 94.665C96.351 95.138 98.2986 97.5585 98.3363 99.5483C98.3674 101.202 97.5746 102.036 95.958 102.051C94.9964 102.058 94.0371 102.051 93.0755 102.053L93.08 102.049ZM91.128 99.6926V99.6859C91.9407 99.6859 92.7557 99.6748 93.5685 99.6882C94.4679 99.7059 94.5567 99.2796 94.2414 98.5623C93.7684 97.4875 92.6092 96.8479 91.108 96.9323C89.8844 97.0011 88.7585 97.3165 88.1278 98.5134C87.6903 99.3417 87.8702 99.6615 88.7985 99.6859C89.5735 99.7082 90.3507 99.6904 91.128 99.6904V99.6926Z" fill="white"/>
<path d="M7.02176 94.1793C9.06035 94.2992 11.0656 94.4636 12.5912 96.1424C13.0865 96.6887 13.122 97.3371 13.2441 97.9367C13.3396 98.412 12.7023 98.5963 12.3026 98.5852C11.1545 98.5541 9.90643 98.9982 9.07367 97.5859C8.61177 96.802 5.34292 96.7642 4.62342 97.3416C4.09046 97.768 4.18817 98.3609 4.89434 98.7251C5.82037 99.2047 6.87075 99.3358 7.86784 99.4979C9.20692 99.7155 10.4949 100.077 11.7607 100.511C12.4069 100.73 12.9066 101.274 13.1975 101.923C14.2345 104.232 13.4107 106.697 10.7614 107.61C8.25868 108.472 5.77151 108.374 3.29545 107.73C1.60995 107.292 0.333056 106.34 0.0288216 104.392C-0.0755506 103.722 0.0998835 103.588 0.615083 103.571C1.42785 103.542 2.24285 103.564 3.05562 103.553C3.37762 103.548 3.61301 103.659 3.80177 103.924C4.80552 105.329 6.0491 105.805 7.71906 105.418C8.10768 105.327 8.48075 105.147 8.87381 105.094C9.4734 105.014 9.73544 104.577 9.731 104.117C9.72878 103.646 9.40011 103.222 8.86271 103.102C7.09726 102.709 5.3407 102.283 3.56415 101.945C1.75874 101.603 0.583993 100.293 0.461855 98.5474C0.31529 96.4622 1.66325 95.0831 3.41537 94.6701C4.60565 94.3881 5.78262 94.1216 7.02176 94.1793Z" fill="white"/>
<path d="M28.9488 101.253C28.9488 103.063 28.9133 104.875 28.9643 106.684C28.9888 107.535 28.7511 107.895 27.8407 107.844C26.7814 107.784 25.6289 108.061 25.5267 106.414C25.5023 106.027 25.1114 106.287 24.9427 106.445C23.0795 108.206 20.9055 108.523 18.4916 107.917C17.0037 107.544 15.7068 106.254 15.6646 104.724C15.578 101.586 15.598 98.4435 15.5758 95.3034C15.5758 95.1924 15.547 95.0392 15.6047 94.9792C16.4952 94.0732 17.6055 94.7438 18.6071 94.5928C19.2266 94.4995 19.2755 95.0147 19.2777 95.49C19.2888 97.8417 19.2488 100.196 19.3399 102.545C19.4043 104.199 19.8751 104.735 21.0987 105.001C22.3689 105.277 24.0455 104.49 24.6829 103.487C25.2114 102.656 25.2847 101.797 25.278 100.875C25.2647 99.1386 25.3046 97.3998 25.2602 95.6654C25.2402 94.8793 25.449 94.5551 26.3084 94.5506C28.9466 94.5417 28.9466 94.5062 28.9466 97.151C28.9466 98.519 28.9466 99.8847 28.9466 101.253H28.9488Z" fill="white"/>
<path d="M79.5717 92.4827C79.5717 92.8691 79.5984 93.0956 79.5673 93.3132C79.4341 94.2615 79.7849 94.7256 80.7842 94.5657C80.8553 94.5546 80.9308 94.5657 81.0063 94.5657C82.4675 94.579 83.147 95.6183 82.5941 96.9796C82.4031 97.4459 81.9967 97.3327 81.6459 97.3482C80.2646 97.4045 79.574 98.1203 79.574 99.4956C79.574 100.826 79.5584 102.156 79.5762 103.486C79.5962 104.934 79.947 105.289 81.4149 105.316C82.0811 105.327 82.694 105.281 82.6296 106.258C82.5763 107.07 82.754 107.928 81.506 107.99C80.5089 108.039 79.5207 108.156 78.5236 108.003C77.0979 107.785 76.012 106.735 75.9587 105.298C75.8787 103.084 75.8765 100.866 75.9187 98.6518C75.9343 97.7524 75.7855 97.1972 74.7306 97.3549C73.8912 97.4792 73.7713 96.9974 73.7758 96.2934C73.7869 94.7278 73.758 94.6989 75.3058 94.5879C75.8365 94.5502 75.9987 94.3081 76.0697 93.8484C76.1808 93.1422 76.3051 92.4338 76.4828 91.7432C76.576 91.3812 76.4561 90.8016 76.9313 90.7217C77.7241 90.584 78.6479 90.4019 79.3208 90.7817C79.9226 91.1214 79.4341 92.0208 79.5717 92.4894V92.4827Z" fill="white"/>
<path d="M67.7419 96.3411C68.5636 94.7023 70.4356 93.8584 72.1189 94.2537C72.5031 94.3447 72.7629 94.5224 72.7651 94.9599C72.7651 95.142 72.8051 95.3263 72.8117 95.5084C72.8983 97.7712 72.8983 97.8778 70.6666 97.9245C68.9899 97.96 67.984 99.6055 67.984 100.976C67.984 102.937 67.9751 104.897 68.0106 106.858C68.0239 107.564 67.7974 107.851 67.0579 107.835C63.8446 107.769 64.3243 108.197 64.3021 105.166C64.2799 102.059 64.3265 98.9504 64.2799 95.8459C64.2665 94.9154 64.482 94.5113 65.5035 94.5468C67.2312 94.6068 67.2334 94.5468 67.7419 96.3411Z" fill="white"/>
<path d="M52.4591 38.2359C51.9372 37.9538 51.9261 37.9338 52.1904 37.7939C52.6301 37.5608 53.1186 37.5808 53.6005 37.5808C58.1862 37.5808 62.7742 37.5519 67.3599 37.603C68.4058 37.6141 68.6701 37.2565 68.6679 36.2594C68.639 24.7185 68.6368 13.1799 68.6723 1.63896C68.6745 0.557486 68.3392 0.262134 67.2821 0.268796C60.6245 0.31099 53.9625 0.133335 47.3115 0.34652C42.3638 0.504189 37.465 1.25034 33.2324 4.2194C33.0303 4.36152 32.7594 4.40593 32.5195 4.49476C33.1524 3.48435 34.2428 3.02911 35.2132 2.56054C38.9617 0.748465 43.0189 0.137776 47.1272 0.0755968C54.0424 -0.0265547 60.9599 0.0467279 67.8751 9.35393e-05C68.8366 -0.00656852 69.0387 0.342079 69.0365 1.22369C69.0143 13.0577 69.0121 24.8918 69.0409 36.728C69.0431 37.7273 68.7789 38.076 67.7307 38.0626C63.4426 38.0027 59.1522 38.0316 54.8618 38.0293C54.0557 38.0293 53.2474 38.0227 52.4591 38.2381V38.2359Z" fill="white"/>
<path d="M90.2395 72.7487C92.3025 73.124 94.3544 73.5637 96.4286 73.8568C98.7025 74.181 101.001 73.9456 103.288 73.9789C103.688 73.9856 103.901 73.7613 103.917 73.3638C103.93 73.0307 103.93 72.6998 103.93 72.3667C103.93 61.6519 103.928 50.9349 103.941 40.2201C103.941 39.7315 103.735 39.1741 104.212 38.7633C104.203 50.1421 104.197 61.5187 104.192 72.8952C104.192 74.3342 104.194 74.3209 102.742 74.3365C101.165 74.352 99.5619 74.5941 98.0186 74.3875C95.3959 74.0367 92.6667 74.0744 90.2417 72.7487H90.2395Z" fill="white"/>
<path d="M32.476 4.59951C32.3428 5.18355 31.8187 5.47224 31.47 5.88307C29.5602 8.13484 28.8607 10.8085 28.4543 13.6666C27.9702 17.0598 28.481 20.3197 29.256 23.5864C29.3071 23.7973 29.316 24.0194 29.3448 24.2348C28.3344 22.9823 28.2412 21.4212 28.1212 19.9511C27.9036 17.3107 27.7926 14.6326 28.2767 12.0144C28.8163 9.09196 29.8201 6.35829 32.476 4.59729V4.59951Z" fill="white"/>
<path d="M29.5621 24.9222C29.7197 25.0177 29.7975 25.1554 29.7908 25.3397C29.6087 25.2576 29.5288 25.1221 29.5621 24.9222Z" fill="white"/>
<path d="M29.8109 25.3903C29.9664 25.508 30.0175 25.6701 30.0041 25.8566C29.7998 25.7589 29.7754 25.5879 29.8109 25.3903Z" fill="white"/>
<path d="M29.4025 24.4919C29.4469 24.6141 29.4891 24.734 29.5335 24.8561C29.3848 24.7717 29.3537 24.6452 29.4025 24.4919Z" fill="white"/>
</svg>
