<?xml version="1.0" encoding="UTF-8"?> <svg xmlns="http://www.w3.org/2000/svg" id="Layer_2" viewBox="0 0 256.56 48.28"><defs><style>.cls-1{fill:#ec9f21;}.cls-2{fill:#d52d28;}.cls-3,.cls-4{fill:#2e6c75;}.cls-5{fill:none;stroke:#2e6c75;stroke-miterlimit:10;stroke-width:2px;}.cls-4{font-family:Poppins-Medium, Poppins;font-size:7.87px;font-weight:500;}</style></defs><g id="Layer_1-2"><g><g><path class="cls-3" d="m25.5,42.06s-.01,0-.02,0h-8.25v-1.35h8.25c.46,0,.85-.2,1.06-.57.23-.39.23-.9,0-1.29-.22-.37-.61-.57-1.06-.57h-11.38c-.45,0-.83.21-1.04.57-.23.39-.23.9,0,1.29.22.37.61.56,1.06.57h.68v1.35h-.67c-.46,0-.85.2-1.06.57-.23.39-.23.9,0,1.29.22.37.6.57,1.06.57h6.36v1.36h-4.46c-.46,0-.85.2-1.06.57-.23.39-.23.9,0,1.29.21.36.59.57,1.04.57,0,0,.01,0,.02,0h7.57c.46,0,.85-.2,1.06-.57.23-.39.23-.9,0-1.29-.22-.37-.61-.58-1.06-.57h-.68v-1.36h2.57c.46,0,.85-.2,1.06-.57.23-.39.23-.9,0-1.29-.21-.36-.59-.57-1.04-.57Z"></path><path class="cls-2" d="m34.98,22.2c-.15-.36-.5-.6-.89-.6h-1.78c-.24,0-.47.09-.65.25l-10.23,9.37c-.92.85-2.32.85-3.24,0l-10.23-9.37c-.18-.16-.41-.25-.65-.25h-1.78c-.39,0-.74.23-.89.6s-.07.78.21,1.05l12.71,12.58c.62.62,1.44.92,2.26.92s1.63-.31,2.26-.92l12.72-12.58c.28-.28.36-.69.21-1.05Z"></path><path class="cls-2" d="m26.6,1.15c-.12-.04-.24-.06-.37-.06-.49,0-.92.31-1.08.77l-1.14,3.29c-.04.13-.07.25-.07.37,0,.49.31.92.77,1.08.12.04.25.06.38.06.17,0,.34-.04.5-.12.28-.14.48-.37.58-.65l1.14-3.29h0c.1-.29.08-.6-.06-.87-.13-.27-.37-.48-.65-.58Z"></path><path class="cls-2" d="m34.2,6.2c-.02-.3-.15-.58-.38-.79-.21-.19-.48-.29-.76-.29-.02,0-.04,0-.06,0-.31.02-.59.15-.79.37l-2.34,2.59c-.19.21-.29.48-.29.76,0,.33.13.63.38.85.21.19.48.29.76.29.02,0,.04,0,.06,0,.31-.02.59-.15.79-.38l2.33-2.59c.2-.22.31-.51.29-.82Z"></path><path class="cls-2" d="m38.82,12.16c-.13-.28-.35-.49-.64-.59-.27-.1-.59-.09-.87.04l-3.15,1.47c-.4.18-.66.59-.66,1.03,0,.16.04.33.11.48.13.28.35.49.65.6.13.05.26.07.39.07.16,0,.33-.04.48-.11l3.15-1.47c.28-.13.49-.36.59-.64h0c.11-.29.09-.6-.04-.87Z"></path><path class="cls-2" d="m5.44,14.7c-.13-.28-.35-.49-.63-.6l-3.25-1.25c-.12-.05-.26-.07-.4-.07-.48,0-.89.29-1.06.73-.11.28-.11.59.02.88.12.28.35.49.63.6l3.25,1.25c.13.05.27.08.41.08.16,0,.32-.03.47-.1.28-.12.49-.35.6-.63l.03-.07h0c.08-.28.06-.56-.05-.81Z"></path><path class="cls-2" d="m8.71,8.82l-2.5-2.42c-.21-.21-.5-.33-.79-.33-.32,0-.61.13-.83.35-.43.45-.42,1.18.03,1.61l2.5,2.42c.21.2.5.32.79.32,0,0,.02,0,.03,0,.3,0,.59-.13.8-.35l.11-.12v-.02c.14-.19.21-.43.21-.67h0c0-.31-.13-.59-.35-.8Z"></path><path class="cls-2" d="m13.01,2.27c-.18-.42-.6-.69-1.05-.69-.15,0-.3.03-.45.09-.28.12-.5.34-.61.62-.11.28-.11.59.01.87l1.36,3.2c.18.43.61.7,1.06.7.15,0,.3-.03.44-.09h0c.58-.25.85-.92.6-1.5l-1.36-3.21Z"></path><path class="cls-2" d="m19.74,0c-.63,0-1.14.51-1.14,1.14v3.49c0,.63.51,1.14,1.14,1.14s1.14-.51,1.14-1.14V1.14c0-.3-.12-.6-.34-.81-.21-.21-.51-.33-.8-.33Z"></path><path class="cls-1" d="m7.84,19.81c-.38,0-.69-.32-.66-.71.4-6.27,5.74-11.42,12.23-11.39,6.49.03,11.92,5.13,12.29,11.39.02.38-.28.7-.66.7H7.84Z"></path><polygon class="cls-3" points="61.25 12.31 56.57 25.06 53.46 25.06 48.79 12.31 51.53 12.31 55.04 22.45 58.53 12.31 61.25 12.31"></polygon><path class="cls-3" d="m72.12,20.77h-7.4c.06.73.32,1.3.77,1.72.45.41,1.01.62,1.66.62.95,0,1.63-.41,2.03-1.22h2.76c-.29.97-.85,1.78-1.68,2.4-.83.63-1.85.94-3.05.94-.97,0-1.85-.22-2.62-.65-.77-.43-1.38-1.04-1.81-1.84-.43-.79-.65-1.71-.65-2.74s.21-1.97.64-2.76c.43-.79,1.02-1.4,1.79-1.83.77-.43,1.65-.64,2.65-.64s1.82.21,2.59.62,1.35,1,1.77,1.76c.42.76.63,1.64.63,2.62,0,.37-.02.69-.07.99h0Zm-2.58-1.72c-.01-.66-.25-1.18-.71-1.58-.46-.4-1.03-.59-1.7-.59-.63,0-1.17.19-1.6.58-.43.38-.7.92-.8,1.6h4.81Z"></path><path class="cls-3" d="m82.59,15.93c.74.76,1.11,1.82,1.11,3.19v5.94h-2.56v-5.59c0-.8-.2-1.42-.6-1.85-.4-.43-.95-.65-1.64-.65s-1.26.22-1.67.65c-.41.43-.61,1.05-.61,1.85v5.59h-2.56v-10.12h2.56v1.26c.34-.44.78-.78,1.31-1.03.53-.25,1.11-.37,1.75-.37,1.21,0,2.18.38,2.92,1.14h0Z"></path><path class="cls-3" d="m89.11,17.04v4.9c0,.34.08.59.25.74.16.15.44.23.83.23h1.19v2.16h-1.61c-2.16,0-3.23-1.05-3.23-3.14v-4.88h-1.21v-2.1h1.21v-2.5h2.58v2.5h2.27v2.1h-2.27Z"></path><path class="cls-3" d="m102.78,14.94v10.12h-2.58v-1.28c-.33.44-.76.78-1.29,1.03-.53.25-1.11.37-1.73.37-.79,0-1.49-.17-2.1-.5-.61-.33-1.09-.83-1.43-1.48-.35-.65-.52-1.43-.52-2.33v-5.94h2.56v5.57c0,.8.2,1.42.6,1.85.4.43.95.65,1.64.65s1.26-.22,1.66-.65c.4-.43.6-1.05.6-1.85v-5.57h2.58Z"></path><path class="cls-3" d="m109.15,15.25c.53-.3,1.14-.46,1.82-.46v2.69h-.68c-.8,0-1.41.19-1.82.57-.41.38-.61,1.04-.61,1.97v5.04h-2.56v-10.12h2.56v1.57c.33-.54.76-.96,1.29-1.26h0Z"></path><path class="cls-3" d="m122.02,20.77h-7.4c.06.73.32,1.3.77,1.72.45.41,1.01.62,1.66.62.95,0,1.63-.41,2.03-1.22h2.76c-.29.97-.85,1.78-1.68,2.4-.83.63-1.85.94-3.05.94-.97,0-1.85-.22-2.62-.65-.77-.43-1.38-1.04-1.81-1.84-.43-.79-.65-1.71-.65-2.74s.21-1.97.64-2.76c.43-.79,1.02-1.4,1.79-1.83.77-.43,1.65-.64,2.65-.64s1.82.21,2.59.62,1.35,1,1.77,1.76c.42.76.63,1.64.63,2.62,0,.37-.02.69-.07.99h0Zm-2.58-1.72c-.01-.66-.25-1.18-.71-1.58-.46-.4-1.03-.59-1.7-.59-.63,0-1.17.19-1.6.58-.43.38-.7.92-.8,1.6h4.81Z"></path><polygon class="cls-1" points="67.54 29.11 67.54 48.05 65.61 48.05 65.61 32.93 58.86 48.05 57.46 48.05 50.71 32.98 50.71 48.05 48.79 48.05 48.79 29.11 50.82 29.11 58.15 45.53 65.48 29.11 67.54 29.11"></polygon><path class="cls-1" d="m85.41,41.3h-12.43c.05,1.13.33,2.1.82,2.91.49.81,1.14,1.41,1.95,1.83.81.41,1.68.62,2.64.62,1.24,0,2.29-.3,3.14-.91.85-.6,1.41-1.42,1.69-2.44h2.03c-.37,1.46-1.15,2.66-2.35,3.58-1.2.92-2.7,1.39-4.52,1.39-1.41,0-2.67-.32-3.79-.95-1.12-.63-1.99-1.53-2.62-2.69-.63-1.16-.95-2.52-.95-4.08s.31-2.92.93-4.09c.62-1.17,1.49-2.07,2.61-2.69,1.12-.62,2.39-.93,3.82-.93s2.68.31,3.75.93c1.07.62,1.89,1.46,2.47,2.51.58,1.05.86,2.22.86,3.5,0,.66-.02,1.16-.05,1.51h0Zm-2.57-4.42c-.47-.79-1.1-1.38-1.91-1.78-.81-.4-1.68-.6-2.64-.6-1.43,0-2.64.46-3.65,1.37-1.01.92-1.56,2.21-1.67,3.87h10.54c.02-1.12-.21-2.07-.67-2.85h0Z"></path><path class="cls-1" d="m89.03,36.48c.62-1.16,1.48-2.06,2.57-2.69,1.09-.63,2.32-.95,3.69-.95s2.51.32,3.57.96c1.06.64,1.84,1.47,2.33,2.5v-8.56h1.92v20.31h-1.92v-3.35c-.46,1.04-1.21,1.9-2.25,2.57-1.04.67-2.27,1-3.68,1s-2.6-.32-3.69-.96c-1.09-.64-1.94-1.55-2.55-2.72-.61-1.17-.92-2.53-.92-4.06s.31-2.89.93-4.05h0Zm11.42.89c-.49-.91-1.17-1.62-2.02-2.11-.85-.49-1.79-.74-2.81-.74s-2.01.24-2.85.71c-.84.48-1.51,1.17-1.99,2.07-.49.91-.73,1.98-.73,3.23s.24,2.3.73,3.23c.48.92,1.15,1.63,1.99,2.11.84.48,1.79.73,2.85.73s1.96-.25,2.81-.74c.85-.49,1.52-1.2,2.02-2.11.49-.91.74-1.98.74-3.18s-.25-2.27-.74-3.18h0Z"></path><path class="cls-1" d="m107.54,36.48c.61-1.16,1.46-2.06,2.55-2.69,1.09-.63,2.32-.95,3.69-.95s2.66.33,3.69.99c1.03.66,1.78,1.5,2.24,2.53v-3.29h1.92v14.99h-1.92v-3.32c-.48,1.02-1.23,1.87-2.26,2.54-1.03.67-2.26,1-3.69,1s-2.58-.32-3.66-.96c-1.09-.64-1.94-1.55-2.55-2.72-.61-1.17-.92-2.53-.92-4.06s.31-2.89.92-4.05h0Zm11.43.89c-.49-.91-1.17-1.62-2.02-2.11-.85-.49-1.79-.74-2.81-.74s-2.01.24-2.85.71c-.84.48-1.51,1.17-1.99,2.07-.49.91-.73,1.98-.73,3.23s.24,2.3.73,3.23c.48.92,1.15,1.63,1.99,2.11.84.48,1.79.73,2.85.73s1.96-.25,2.81-.74c.85-.49,1.52-1.2,2.02-2.11.49-.91.74-1.98.74-3.18s-.25-2.27-.74-3.18h0Z"></path></g><text class="cls-4" transform="translate(143.72 21.85)"><tspan x="0" y="0">Job creation through </tspan><tspan x="0" y="9.44">Incubation and Acceleration</tspan><tspan x="0" y="18.88">Support in Ethiopia</tspan></text><line class="cls-5" x1="134.72" y1="12.43" x2="134.72" y2="48.05"></line></g></g></svg> 